# xmcd CD database file
#
# Track frame offsets:
#	150
#	41285
#	66066
#	99318
#	112415
#	131841
#	145535
#	179017
#	192775
#	208798
#	236200
#	264614
#
# Disc length: 3792 seconds
#
# Revision: 1
# Processed by: cddbd v1.5.2PL0 Copyright (c) Steve Scherf et al.
# Submitted via: CDex 1.51
#
DISCID=b60ece0c
DTITLE=Georgia Kelly - Perennials
DYEAR=1996
DGENRE=New Age
TTITLE0=Seapeace
TTITLE1=Tarashanti
TTITLE2=Primavera
TTITLE3=Birds of Paradise, harp solo
TTITLE4=The Sound of Spirit, harp solo
TTITLE5=The Sound of Spirit, choral epilogue
TTITLE6=Chiavenna
TTITLE7=Winter Waltz
TTITLE8=Greensleeves
TTITLE9=Fantasia
TTITLE10=Yovano Yovanke
TTITLE11=Mala Kavana
EXTD=YEAR: 1996
EXTT0=
EXTT1=
EXTT2=
EXTT3=
EXTT4=
EXTT5=
EXTT6=
EXTT7=
EXTT8=
EXTT9=
EXTT10=
EXTT11=
PLAYORDER=
